<svg version="1.2" xmlns="http://www.w3.org/2000/svg" viewBox="0 0 800 800" width="800" height="800"><style>.a{fill:none;stroke:#000;stroke-linecap:round;stroke-linejoin:round;stroke-width:66.7}</style><path class="a" d="m566.7 100l-166.7 133.3-166.7-133.3m-6.6 600h346.6c56 0 84 0 105.4-10.9 18.8-9.6 34.1-24.9 43.7-43.7 10.9-21.4 10.9-49.4 10.9-105.4v-146.7c0-56 0-84-10.9-105.4-9.6-18.8-24.9-34.1-43.7-43.7-21.4-10.9-49.4-10.9-105.4-10.9h-346.6c-56 0-84 0-105.4 10.9-18.8 9.6-34.1 24.9-43.7 43.7-10.9 21.4-10.9 49.4-10.9 105.4v146.7c0 56 0 84 10.9 105.4 9.6 18.8 24.9 34.1 43.7 43.7 21.4 10.9 49.4 10.9 105.4 10.9z"/><path  d="m187.1 461.4q-4 0-6.8-2.6-2.6-2.8-2.6-6.8 0-2.9 1.6-5.2 1.9-2.6 4.7-3.8l84.7-37.6-84.7-37.6q-2.8-1.2-4.7-3.5-1.6-2.6-1.6-5.4 0-4 2.6-6.6 2.8-2.8 6.8-2.8 2.1 0 3.8 0.7l93.7 42.1q4 1.8 6.2 5.1 2.3 3.1 2.3 7.1v1.9q0 4-2.3 7.2-2.2 3.1-6.2 5l-93.7 42.1q-1.7 0.7-3.8 0.7zm472.9 0q-1.8 0-3.7-0.7l-93.8-42.1q-4-1.9-6.3-5-2.2-3.2-2.2-7.2v-1.9q0-4 2.2-7.1 2.3-3.3 6.3-5.1l93.8-42.1q1.9-0.7 3.7-0.7 4 0 6.6 2.8 2.9 2.6 2.9 6.6 0 2.8-1.9 5.4-1.7 2.3-4.5 3.5l-84.6 37.6 84.6 37.6q2.8 1.2 4.5 3.8 1.9 2.3 1.9 5.2 0 4-2.9 6.8-2.6 2.6-6.6 2.6z"/></svg>