<svg version="1.2" xmlns="http://www.w3.org/2000/svg" viewBox="0 0 800 800" width="800" height="800">
	<title>steam</title>
	<style>
		.s0 { fill: #000000 } 
	</style>
	<g id="Layer 1">
		<path class="s0" d="m399.7 10c-204.8 0-372.8 158-388.7 358.8l209 86.5c17.8-12.1 39.1-19.2 62.3-19.2 2 0 4 0.1 6.1 0.1l92.9-134.6v-1.9c0-81.2 65.9-147.1 147.1-147.1 81.1 0 147.1 66.1 147.1 147.2 0 81.2-66 147.1-147.1 147.1h-3.3l-132.6 94.6c0 1.7 0.1 3.4 0.1 5.2 0 60.9-49.3 110.3-110.2 110.3-53.1 0-98.1-38.1-108.4-88.6l-149.5-62c46.3 163.9 196.6 283.9 375.2 283.9 215.4 0 390-174.6 390-390.2 0-215.5-174.6-390.1-390-390.1zm-144.4 592l-47.8-19.8c8.5 17.7 23.2 32.4 42.7 40.7 42.2 17.5 90.8-2.6 108.4-44.7 8.5-20.6 8.5-43 0.1-63.4-8.4-20.6-24.4-36.5-44.8-45-20.2-8.5-42-8.1-61-1l49.4 20.5c31.1 13 45.8 48.7 32.9 79.8-13 31.2-48.8 45.9-79.9 32.9zm371.1-302.5c0-53.9-43.9-98-97.9-98-54.2 0-98 44.1-98 98 0 54.1 43.8 98.1 98 98.1 54 0 97.9-44 97.9-98.1zm-171.3-0.1c0-40.7 32.9-73.6 73.5-73.6 40.7 0 73.8 32.9 73.8 73.6 0 40.7-33.1 73.7-73.8 73.7-40.6 0-73.5-33-73.5-73.7z"/>
	</g>
</svg>